<svg xmlns="http://www.w3.org/2000/svg" width="199.529" height="184.181" viewBox="0 0 199.529 184.181"><defs><style>.a{fill:#fff;}</style></defs><g transform="translate(-2.25 -3)"><path class="a" d="M62.684,3h-28.2A32.24,32.24,0,0,0,2.25,35.232v28.2a6.715,6.715,0,1,0,13.43,0V34.752a18.405,18.405,0,0,1,5.612-12.567A18.315,18.315,0,0,1,34,16.43H62.684a6.715,6.715,0,1,0,0-13.43Z"/><path class="a" d="M50.585,3H21.9a6.715,6.715,0,1,0,0,13.43H50.585A18.315,18.315,0,0,1,63.3,22.186a18.405,18.405,0,0,1,5.612,12.567V63.434a6.715,6.715,0,1,0,13.43,0V34.752A31.79,31.79,0,0,0,50.585,3Z" transform="translate(119.443)"/><path class="a" d="M62.684,68.157H34A18.315,18.315,0,0,1,21.292,62.4,18.405,18.405,0,0,1,15.68,49.835V21.152a6.715,6.715,0,1,0-13.43,0V49.835A31.79,31.79,0,0,0,34,81.587H62.684a6.715,6.715,0,1,0,0-13.43Z" transform="translate(0 105.594)"/><path class="a" d="M75.622,14.438a6.735,6.735,0,0,0-6.715,6.715V49.835A18.405,18.405,0,0,1,63.3,62.4a18.315,18.315,0,0,1-12.71,5.756H21.9a6.715,6.715,0,1,0,0,13.43h28.2A32.271,32.271,0,0,0,82.337,49.355v-28.2A6.735,6.735,0,0,0,75.622,14.438Z" transform="translate(119.443 105.594)"/></g></svg>