<svg xmlns="http://www.w3.org/2000/svg" width="20.566" height="20.566" viewBox="0 0 20.566 20.566"><path d="M8.141,2.571H3V7.712H8.141ZM9.426,1.285V9H1.714V1.285ZM4.285,3.856H6.855V6.427H4.285Zm16.71-1.285H15.853V7.712h5.141V2.571Zm1.285-1.285V9H14.567V1.285h7.712ZM17.138,3.856h2.571V6.427H17.138Zm-9,11.568H3v5.141H8.141V15.424Zm1.285-1.285v7.712H1.714V14.139H9.426ZM4.285,16.71H6.855V19.28H4.285ZM10.711,1.285H12V2.571H10.711ZM12,2.571h1.285V3.856H12ZM10.711,3.856H12V5.141H10.711ZM12,5.141h1.285V6.427H12ZM10.711,6.427H12V7.712H10.711ZM12,7.712h1.285V9H12ZM10.711,9H12v1.285H10.711Zm0,2.571H12v1.285H10.711ZM12,12.854h1.285v1.285H12Zm-1.285,1.285H12v1.285H10.711ZM12,15.424h1.285V16.71H12ZM10.711,16.71H12v1.285H10.711ZM12,17.995h1.285V19.28H12ZM10.711,19.28H12v1.285H10.711ZM12,20.566h1.285v1.285H12Zm9-9h1.285v1.285H20.994ZM3,11.568H4.285v1.285H3Zm1.285-1.285H5.57v1.285H4.285Zm-2.571,0H3v1.285H1.714Zm5.141,0H8.141v1.285H6.855Zm1.285,1.285H9.426v1.285H8.141Zm1.285-1.285h1.285v1.285H9.426Zm3.856,1.285h1.285v1.285H13.282Zm1.285-1.285h1.285v1.285H14.567Zm1.285,1.285h1.285v1.285H15.853Zm1.285-1.285h1.285v1.285H17.138Zm1.285,1.285h1.285v1.285H18.423Zm1.285-1.285h1.285v1.285H19.709Zm1.285,3.856h1.285v1.285H20.994Zm-7.712,0h1.285v1.285H13.282Zm1.285-1.285h1.285v1.285H14.567Zm1.285,1.285h1.285v1.285H15.853Zm2.571,0h1.285v1.285H18.423Zm1.285-1.285h1.285v1.285H19.709Zm1.285,3.856h1.285v1.285H20.994Zm-7.712,0h1.285v1.285H13.282Zm1.285-1.285h1.285V16.71H14.567Zm2.571,0h1.285V16.71H17.138Zm1.285,1.285h1.285v1.285H18.423Zm1.285-1.285h1.285V16.71H19.709Zm1.285,3.856H22.28v1.285H20.994Zm-6.427-1.285h1.285V19.28H14.567Zm1.285,1.285h1.285v1.285H15.853Zm1.285-1.285h1.285V19.28H17.138Zm1.285,1.285h1.285v1.285H18.423Zm-3.856,1.285h1.285v1.285H14.567Zm2.571,0h1.285v1.285H17.138Zm2.571,0h1.285v1.285H19.709Z" transform="translate(-1.714 -1.285)"/></svg>